# xmcd
#
# Track frame offsets: 
#        150
#        10850
#        20445
#        33139
#        43192
#        53921
#        69538
#        82740
#        94574
#        106226
#        116328
#        127253
#        137608
#        146609
#        174998
#        183323
#
# Disc length: 2626 seconds
#
# Revision: 0
# Processed by: cddbd v1.5.2PL0 Copyright (c) Steve Scherf et al.
# Submitted via: ExactAudioCopyFreeDBPlugin 1.0
#
DISCID=ca0a4010
DTITLE=Varios - Life At The Frontiers - Country - CD2
DYEAR=2012
DGENRE=Country
TTITLE0=Johnny Cash - Daddy Sang Bass
TTITLE1=Kenny Rogers and The First Edition - Camptown Ladies
TTITLE2=Ray Prince - Let It Rain, Let Her Cry
TTITLE3=Johnny Cash and The Tennessee Two - Ballad Of A Teenage Queen
TTITLE4=Ricky Nelson - Travelin' Man
TTITLE5=Kenny Rogers - My Washington Woman
TTITLE6=The Statler Brothers - Do You Remember These
TTITLE7=Kenny Rogers - Elvira
TTITLE8=Johnny Cash and The Tennessee Two - Doin' My Time
TTITLE9=Willie Nelson - Healing Hands Of Time
TTITLE10=Kenny Rogers - We All Got To Help Each Other
TTITLE11=Waylon Jennings - White Lightning
TTITLE12=Johnny Cash and The Tennessee Two - Remember Me
TTITLE13=Johnny Cash - Starkville City Jail
TTITLE14=Willie Nelson - Things To Remember
TTITLE15=Kenny Rogers - I'm Gonna Sing You A Sad Saong, Suzie
EXTD=
EXTT0=
EXTT1=
EXTT2=
EXTT3=
EXTT4=
EXTT5=
EXTT6=
EXTT7=
EXTT8=
EXTT9=
EXTT10=
EXTT11=
EXTT12=
EXTT13=
EXTT14=
EXTT15=
PLAYORDER=
